<svg xmlns="http://www.w3.org/2000/svg" width="333" height="60" viewBox="0 0 333 60" xmlns:xlink="http://www.w3.org/1999/xlink">
  <defs>
    <linearGradient id="a" x1="50%" x2="50%" y1="0%" y2="100%">
      <stop stop-color="#F65366" offset="0%"/>
      <stop stop-color="#F87168" offset="20.0672743%"/>
      <stop stop-color="#FB9568" offset="40.9695095%"/>
      <stop stop-color="#FEC96A" offset="70.8034939%"/>
      <stop stop-color="#FFDB6B" offset="100%"/>
    </linearGradient>
    <filter id="b" width="200%" height="200%" x="-50%" y="-50%" filterUnits="objectBoundingBox">
      <feGaussianBlur stdDeviation="3.76470588" in="SourceGraphic"/>
    </filter>
    <filter id="c" width="200%" height="200%" x="-50%" y="-50%" filterUnits="objectBoundingBox">
      <feGaussianBlur stdDeviation="3.76470588" in="SourceGraphic"/>
    </filter>
    <path id="d" d="M41.6973353 0c-1.1594151 10.4790306-10.0513728 18.6295929-20.8486676 18.6295929C10.0513728 18.6295929 1.1594151 10.4790306 0 0h41.6973353z"/>
  </defs>
  <g fill="none" fill-rule="evenodd">
    <g transform="translate(273)">
      <ellipse cx="29.9667037" cy="29.9404171" fill="url(#a)" rx="29.9667037" ry="29.9404171"/>
      <path fill="#000" d="M40.6544505 36.454463c-1.8950328.211015-3.9296383.2649028-6.1044687.1370838-.7342931-.0431558-1.2945398-.6728805-1.2513461-1.4065294.0431937-.733649.6734713-1.2934043 1.4077643-1.2502484 5.0249139.2953238 9.1783655-.4486657 12.5006575-1.8597372.9729672-.4132467 1.7946858-.8526186 2.4673574-1.2873325.3861112-.2495243.6271588-.4325798.724913-.5180397.5535671-.4839463 1.3949824-.4279012 1.8793536.1251803.4843712.5530816.4282769 1.3937587-.1252902 1.8777051-.1922939.1681095-.5355723.4288006-1.032295.7498076-.7987182.5161715-1.755357 1.0276851-2.8719446 1.5019315-.8346993.3545204-1.713641.670664-2.6369427.9439975.2144921.4315071.3367366.9288237.3367366 1.4582328 0 1.6535636-1.1925822 2.9940417-2.663707 2.9940417-1.4711247 0-2.663707-1.3404781-2.663707-2.9940417 0-.1606184.0112522-.3182827.0329189-.4720514zm-25.7442529-.8192936c-1.1402832-.3088174-2.2155277-.6817338-3.225942-1.1108853-1.1165876-.4742464-2.07322636-.98576-2.87194453-1.5019315-.4967227-.321007-.84000116-.5816981-1.032295-.7498076-.5535671-.4839464-.60966146-1.3246235-.12529025-1.8777051.48437122-.5530815 1.32578647-.6091266 1.87935357-.1251803.09775424.0854599.33880184.2685154.724913.5180397.6726717.4347139 1.4943903.8740858 2.4673575 1.2873325 3.3222919 1.4110715 7.4757435 2.155061 12.5006574 1.8597372.7342931-.0431559 1.3645706.5165994 1.4077643 1.2502484.0431938.7336489-.517053 1.3633736-1.251346 1.4065294-1.9189094.112778-3.7286537.0840975-5.4296811-.0691582.0158651.1321677.0240579.2670714.0240579.4041258 0 1.6535636-1.1925822 2.9940417-2.663707 2.9940417-1.4711247 0-2.6637069-1.3404781-2.6637069-2.9940417 0-.4624232.0932665-.9003613.2598091-1.291345zm15.0565058 13.6001831c5.1489366 0 8.657048 0 9.3229747-1.3306852.6659268-1.3306852-4.1740381-1.9960278-9.3229747-1.9960278s-9.988901.6653426-9.3229742 1.9960278c.6659267 1.3306852 4.1740376 1.3306852 9.3229742 1.3306852z"/>
    </g>
    <g transform="translate(204)">
      <ellipse cx="29.9667037" cy="29.9404171" fill="#FFDA6A" rx="29.9667037" ry="29.9404171"/>
      <g transform="translate(6.66 6.653)">
        <ellipse cx="5.99334073" cy="23.9523337" fill="#F55065" filter="url(#b)" rx="5.32741398" ry="5.32274081"/>
        <ellipse cx="37.2918979" cy="15.3028798" fill="#F55065" filter="url(#c)" rx="5.32741398" ry="5.32274081"/>
        <path fill="#000" d="M15.8181203 12.4367331C14.4543126 8.24304668 9.94608876 5.94800684 5.74872042 7.31061816 1.5513521 8.6732295-.7457027 13.1774988.61810492 17.3711852c.2273013.6989478.97867193 1.0814544 1.67823332.8543525.6995614-.2271019 1.08240386-.9778134.85510258-1.6767612-.9092051-2.7957909.62216477-5.7986371 3.42041033-6.70704467 2.79824556-.90840755 5.80372815.62161897 6.71293325 3.41740997.2273013.6989477.9786719 1.0814544 1.6782333.8543525.6995614-.2271019 1.0824039-.9778134.8551026-1.6767612zm21.3096559-6.653426C35.7639686 1.58962066 31.2557447-.70541918 27.0583764.65719214c-4.1973684 1.36261133-6.4944232 5.86688063-5.1306155 10.06056706.2273012.6989477.9786719 1.0814544 1.6782333.8543525.6995614-.2271019 1.0824038-.9778134.8551026-1.67676118-.9092051-2.79579096.6221647-5.79863716 3.4204103-6.7070447 2.7982455-.90840756 5.8037281.621619 6.7129332 3.41740996.2273013.69894774.978672 1.08145438 1.6782333.8543525.6995614-.2271019 1.0824039-.97781344.8551026-1.67676118zM9.463582 25.2127768c.7749425 1.5485254 5.2657481 3.40737 9.2976613 3.5623076 5.7808436.2221451 10.8892922-2.5154375 14.3702318-8.8388668.3544813-.6439461.1193654-1.4530793-.525146-1.8072497-.6445115-.3541703-1.4543551-.1192607-1.8088364.5246854-2.9835089 5.4198033-7.1382705 7.6463115-11.9338748 7.462027-1.7911996-.0688319-3.5741397-.4871108-5.1185697-1.1263849-.6194406-.2564002-1.1620356-.5345773-1.5649485-.7926889-.1654852-.1060122-.2958458-.2015457-.3806782-.2755569-.0163071-.014227-.0046024-.0008936.0466525.1015262-.3289535-.6573299-1.128962-.9237655-1.786869-.5951006-.657907.328665-.9245765 1.1279717-.595623 1.7853016z"/>
      </g>
    </g>
    <g transform="translate(136)">
      <ellipse cx="29.9667037" cy="29.9404171" fill="#FFDA6A" rx="29.9667037" ry="29.9404171"/>
      <g stroke="#000" stroke-width="2.4" stroke-linecap="round" stroke-linejoin="round">
        <path d="M11.80616693 16.1999971l8.2000122 4-7.7000122 4M48.7061909 16.1999971l-8.2000122 4 7.7000122 4"/>
      </g>
      <g transform="translate(9.323 30.606)">
        <mask id="e" fill="#fff">
          <use xlink:href="#d"/>
        </mask>
        <use fill="#000" xlink:href="#d"/>
        <ellipse cx="20.9766926" cy="18.2969215" fill="#F55065" mask="url(#e)" rx="25.6381798" ry="12.9741807"/>
      </g>
    </g>
    <g transform="translate(68)">
      <ellipse cx="29.9667037" cy="29.9404171" fill="#F55065" rx="29.9667037" ry="29.9404171"/>
      <path fill="#FFF" d="M30.299667 20.921113c-2.0307419-3.8497514-5.9498284-5.5548173-10.43149-4.7632285-6.0417203 1.0682341-8.9107133 7.5803535-6.1764017 13.8459574 3.0899545 7.0818442 10.1459937 12.0838064 16.6078917 15.9047976 6.4618981-3.8209912 13.5179372-8.8229534 16.6078918-15.9047976 2.7343116-6.2656039-.1346814-12.7777233-6.1764017-13.8459574-4.4816616-.7915888-8.4007481.9134771-10.4314901 4.7632285z"/>
    </g>
    <g>
      <ellipse cx="29.9667037" cy="29.9404171" fill="#558DFF" rx="29.9667037" ry="29.9404171"/>
      <path fill="#FFF" d="M13.318535 26.6055362c0-.7336028.5931311-1.328369 1.3294849-1.328369h5.9707192c.7342092 0 1.329418.5944989 1.329418 1.328369v15.2107675c0 .7336697-.5931312 1.3284358-1.329418 1.3284358h-5.9707192c-.7342762 0-1.3294849-.5944989-1.3294849-1.3284358V26.6055362zm21.0627896-14.514112c-.9619448-1.1027427-2.7287383-1.0327899-3.5429699.1823985-.1597097.2383207-.2605085.9619685-.2605085 1.2284842v1.8484386c0 2.5199058-4.9999278 6.6555418-6.1834422 9.3505635-.3385874.7710179-.3952867 1.6076459-.4459541 2.5587907l-.0087797.0023385v12.5671246c0 .3689395.3000506.6681265.6702046.6681265h16.5425944c1.110261 0 2.0525687-.9056454 2.0377572-2.0123301-.0086456-.6448088-.3256524-1.2153888-.8106795-1.5719011.8740139-.4332132 1.4746513-1.3325114 1.4746513-2.3716485 0-.8797889-.4305395-1.6592921-1.0930368-2.1406104 1.0243408-.3671355 1.7568745-1.3441368 1.7568745-2.4917108 0-.9965774-.5525167-1.8646073-1.368826-2.3161272.8102104-.4481792 1.3605154-1.3065881 1.3686919-2.2938118.0121978-1.4682079-1.2294904-2.6694324-2.7022651-2.6694324h-7.142438c.6457422-2.2114986.9194538-4.1315605 1.0901549-5.4388167.2591011-1.9853378-.6557953-4.2672569-1.382029-5.0998761z"/>
    </g>
  </g>
</svg>
