<?xml version="1.0" encoding="UTF-8"?>
<svg width="222px" height="40px" viewBox="0 0 222 40" version="1.1" xmlns="http://www.w3.org/2000/svg" xmlns:xlink="http://www.w3.org/1999/xlink">
    <!-- Generator: Sketch 40.3 (33839) - http://www.bohemiancoding.com/sketch -->
    <title>emojis-small</title>
    <desc>Created with Sketch.</desc>
    <defs>
        <linearGradient x1="50%" y1="0%" x2="50%" y2="100%" id="linearGradient-1">
            <stop stop-color="#F65366" offset="0%"></stop>
            <stop stop-color="#F87168" offset="20.0672743%"></stop>
            <stop stop-color="#FB9568" offset="40.9695095%"></stop>
            <stop stop-color="#FEC96A" offset="70.8034939%"></stop>
            <stop stop-color="#FFDB6B" offset="100%"></stop>
        </linearGradient>
        <filter x="-50%" y="-50%" width="200%" height="200%" filterUnits="objectBoundingBox" id="filter-2">
            <feGaussianBlur stdDeviation="2.50980392" in="SourceGraphic"></feGaussianBlur>
        </filter>
        <filter x="-50%" y="-50%" width="200%" height="200%" filterUnits="objectBoundingBox" id="filter-3">
            <feGaussianBlur stdDeviation="2.50980392" in="SourceGraphic"></feGaussianBlur>
        </filter>
        <path d="M27.7982236,-1.22124533e-15 C27.0252802,6.98602041 21.0973084,12.4197286 13.8991118,12.4197286 C6.7009152,12.4197286 0.7729434,6.98602041 -6.80011603e-15,1.36557432e-14 L27.7982236,0 Z" id="path-4"></path>
    </defs>
    <g id="FB-emojii-Freebies" stroke="none" stroke-width="1" fill="none" fill-rule="evenodd">
        <g transform="translate(-142.000000, -486.000000)" id="emojis-small">
            <g transform="translate(142.000000, 486.000000)">
                <g id="angry" transform="translate(182.000000, 0.000000)">
                    <g id="emoji" transform="translate(0.000000, 0.000000)">
                        <ellipse id="body" fill="url(#linearGradient-1)" cx="19.9778024" cy="19.9602781" rx="19.9778024" ry="19.9602781"></ellipse>
                        <path d="M27.102967,24.3029753 C25.8396118,24.443652 24.4832081,24.4795772 23.0333212,24.3943646 C22.5437925,24.365594 22.1702947,23.9457775 22.1990905,23.4566782 C22.2278863,22.9675789 22.6480713,22.5944088 23.1376,22.6231793 C26.4875426,22.8200619 29.2565103,22.3240689 31.4713716,21.3833546 C32.1200164,21.1078567 32.6678288,20.8149421 33.1162766,20.5251328 C33.3736841,20.3587833 33.5343825,20.2367464 33.599552,20.1797731 C33.9685967,19.8571422 34.5295402,19.8945056 34.8524543,20.2632266 C35.1753685,20.6319476 35.1379722,21.1923991 34.7689275,21.51503 C34.6407316,21.627103 34.4118793,21.8008971 34.0807308,22.0149017 C33.5482521,22.3590161 32.9104929,22.7000251 32.1661011,23.0161894 C31.6096349,23.2525363 31.0236738,23.4632987 30.4081393,23.645521 C30.5511341,23.9331925 30.6326304,24.2647369 30.6326304,24.6176763 C30.6326304,25.720052 29.8375756,26.6137041 28.8568257,26.6137041 C27.8760759,26.6137041 27.0810211,25.720052 27.0810211,24.6176763 C27.0810211,24.5105974 27.0885225,24.4054878 27.102967,24.3029753 Z M9.94013172,23.7567796 C9.1799429,23.5509013 8.46311328,23.3022904 7.78950376,23.0161894 C7.04511201,22.7000251 6.40735282,22.3590161 5.87487405,22.0149017 C5.54372558,21.8008971 5.31487327,21.627103 5.18667737,21.51503 C4.81763264,21.1923991 4.78023641,20.6319476 5.10315055,20.2632266 C5.42606469,19.8945056 5.98700819,19.8571422 6.35605293,20.1797731 C6.42122242,20.2367464 6.58192083,20.3587833 6.83932828,20.5251328 C7.28777605,20.8149421 7.83558845,21.1078567 8.48423324,21.3833546 C10.6990945,22.3240689 13.4680623,22.8200619 16.8180049,22.6231793 C17.3075336,22.5944088 17.7277186,22.9675789 17.7565144,23.4566782 C17.7853102,23.9457775 17.4118124,24.365594 16.9222837,24.3943646 C15.6430108,24.4695499 14.4365146,24.4504295 13.3024963,24.348259 C13.3130731,24.4363709 13.318535,24.5263066 13.318535,24.6176763 C13.318535,25.720052 12.5234801,26.6137041 11.5427303,26.6137041 C10.5619805,26.6137041 9.76692564,25.720052 9.76692564,24.6176763 C9.76692564,24.3093942 9.82910331,24.0174354 9.94013172,23.7567796 Z M19.9778023,32.8235684 C23.4104267,32.8235684 25.7491676,32.8235684 26.1931188,31.9364449 C26.6370699,31.0493214 23.4104267,30.6057597 19.9778023,30.6057597 C16.5451779,30.6057597 13.318535,31.0493214 13.7624861,31.9364449 C14.2064373,32.8235684 16.5451779,32.8235684 19.9778023,32.8235684 Z" id="expression" fill="#000000"></path>
                    </g>
                </g>
                <g id="ya" transform="translate(136.000000, 0.000000)">
                    <g id="emoji" transform="translate(0.000000, 0.000000)">
                        <ellipse id="body" fill="#FFDA6A" cx="19.9778024" cy="19.9602781" rx="19.9778024" ry="19.9602781"></ellipse>
                        <g id="expression" transform="translate(4.439512, 4.435617)">
                            <ellipse id="red" fill="#F55065" filter="url(#filter-2)" cx="3.99556049" cy="15.9682224" rx="3.55160932" ry="3.54849388"></ellipse>
                            <ellipse id="red" fill="#F55065" filter="url(#filter-3)" cx="24.8612653" cy="10.2019199" rx="3.55160932" ry="3.54849388"></ellipse>
                            <path d="M10.5454135,8.29115541 C9.63620843,5.49536445 6.63072584,3.96533789 3.83248028,4.87374544 C1.03423472,5.78215299 -0.497135142,8.78499919 0.412069955,11.5807901 C0.563604138,12.0467553 1.0645179,12.3017597 1.53089216,12.1503585 C1.99726642,11.9989572 2.25249473,11.4984829 2.10096055,11.0325177 C1.49482382,9.16865705 2.51573706,7.16675959 4.3812341,6.56115455 C6.24673114,5.95554952 8.2503862,6.97556723 8.85652293,8.83942787 C9.00805711,9.30539303 9.50897088,9.56039745 9.97534514,9.40899619 C10.4417194,9.25759494 10.6969477,8.75712057 10.5454135,8.29115541 Z M24.7518508,3.85553806 C23.8426457,1.05974711 20.8371631,-0.470279452 18.0389176,0.438128097 C15.240672,1.34653565 13.7093021,4.34938184 14.6185072,7.1451728 C14.7700414,7.61113796 15.2709552,7.86614239 15.7373295,7.71474113 C16.2037037,7.56333987 16.458932,7.0628655 16.3073978,6.59690035 C15.7012611,4.73303971 16.7221744,2.73114224 18.5876714,2.12553721 C20.4531684,1.51993218 22.4568235,2.53994988 23.0629602,4.40381052 C23.2144944,4.86977568 23.7154082,5.12478011 24.1817824,4.97337885 C24.6481567,4.82197759 24.903385,4.32150322 24.7518508,3.85553806 Z M6.30905466,16.8085179 C6.82568299,17.8408682 9.81955337,19.0800979 12.5074956,19.1833896 C16.3613913,19.3314863 19.7670237,17.5064313 22.0876501,13.2908117 C22.323971,12.8615143 22.167227,12.3220922 21.7375527,12.0859786 C21.3078784,11.849865 20.7679827,12.0064715 20.5316618,12.4357689 C18.5426559,16.048971 15.7728148,17.5333099 12.5757453,17.4104535 C11.3816122,17.3645656 10.1929855,17.085713 9.16336544,16.6595303 C8.75040505,16.4885968 8.3886751,16.3031454 8.12006646,16.131071 C8.00974297,16.0603962 7.92283595,15.9967072 7.86628099,15.9473664 C7.85540957,15.9378817 7.86321275,15.9467707 7.89738263,16.0150505 C7.6780803,15.5768306 7.14474131,15.3992069 6.70613665,15.6183168 C6.26753199,15.8374268 6.08975233,16.3702979 6.30905466,16.8085179 Z" fill="#000000"></path>
                        </g>
                    </g>
                </g>
                <g id="haha" transform="translate(90.000000, 0.000000)">
                    <g id="emoji">
                        <ellipse id="body" fill="#FFDA6A" cx="19.9778024" cy="19.9602781" rx="19.9778024" ry="19.9602781"></ellipse>
                        <g id="expression" transform="translate(6.215316, 10.201920)">
                            <g id="eyes" transform="translate(1.333333, 0.000000)" stroke="#000000" stroke-width="1.6" stroke-linecap="round" stroke-linejoin="round">
                                <polyline id="eyes-left" points="0.322128619 0.598078071 5.78880342 3.26474474 0.655461952 5.9314114"></polyline>
                                <polyline id="eyes-right" transform="translate(22.188807, 3.264745) scale(-1, 1) translate(-22.188807, -3.264745) " points="19.4554701 0.598078071 24.9221449 3.26474474 19.7888034 5.9314114"></polyline>
                            </g>
                            <g id="mouth" transform="translate(0.000000, 10.201920)">
                                <mask id="mask-5" fill="white">
                                    <use xlink:href="#path-4"></use>
                                </mask>
                                <use id="Mask" fill="#000000" xlink:href="#path-4"></use>
                                <ellipse id="Oval-12" fill="#F55065" mask="url(#mask-5)" cx="13.9844617" cy="12.1979477" rx="17.0921199" ry="8.64945382"></ellipse>
                            </g>
                        </g>
                    </g>
                </g>
                <g id="love" transform="translate(45.000000, 0.000000)">
                    <g transform="translate(0.000000, 0.000000)">
                        <ellipse id="body" fill="#F55065" cx="19.9778024" cy="19.9602781" rx="19.9778024" ry="19.9602781"></ellipse>
                        <path d="M20.199778,13.9474087 C18.8459501,11.3809078 16.2332257,10.2441971 13.2454513,10.771923 C9.21763777,11.4840791 7.3049758,15.825492 9.12785021,20.0025613 C11.1878199,24.7237908 15.891846,28.0584322 20.199778,30.6057597 C24.5077101,28.0584322 29.2117362,24.7237908 31.2717058,20.0025613 C33.0945802,15.825492 31.1819183,11.4840791 27.1541047,10.771923 C24.1663303,10.2441971 21.553606,11.3809078 20.199778,13.9474087 Z" id="heart" fill="#FFFFFF"></path>
                    </g>
                </g>
                <g id="like">
                    <g id="thumbs" transform="translate(0.000000, 0.000000)">
                        <ellipse id="body" fill="#558DFF" cx="19.9778024" cy="19.9602781" rx="19.9778024" ry="19.9602781"></ellipse>
                        <path d="M8.87902331,17.7370241 C8.87902331,17.2479556 9.27444405,16.8514448 9.76534662,16.8514448 L13.7458261,16.8514448 C14.2352989,16.8514448 14.6321047,17.2477774 14.6321047,17.7370241 L14.6321047,27.8775358 C14.6321047,28.3666489 14.236684,28.7631597 13.7458261,28.7631597 L9.76534662,28.7631597 C9.27582914,28.7631597 8.87902331,28.3668271 8.87902331,27.8775358 L8.87902331,17.7370241 L8.87902331,17.7370241 Z M22.9208831,8.06094947 C22.2795866,7.32578766 21.1017242,7.37242288 20.5589031,8.18254849 C20.45243,8.34142896 20.3852308,8.82386081 20.3852308,9.00153791 L20.3852308,10.2338304 C20.3852308,11.9137675 17.0519456,14.6708582 16.262936,16.4675393 C16.0372111,16.9815513 15.9994116,17.5393033 15.9656332,18.1733998 L15.9597801,18.1749588 L15.9597801,26.5530419 C15.9597801,26.7990015 16.1598139,26.9984595 16.4065832,26.9984595 L27.4349795,26.9984595 C28.1751535,26.9984595 28.8033586,26.3946959 28.7934843,25.6569061 C28.7877205,25.2270336 28.5763827,24.8466469 28.2530313,24.6089721 C28.8357072,24.3201633 29.2361321,23.7206311 29.2361321,23.0278731 C29.2361321,22.4413471 28.9491058,21.9216783 28.5074409,21.6007995 C29.1903348,21.3560425 29.6786906,20.7047083 29.6786906,19.9396589 C29.6786906,19.275274 29.3103461,18.6965874 28.7661399,18.3955741 C29.3062802,18.096788 29.6731502,17.5245154 29.6786012,16.8663663 C29.686733,15.887561 28.8589409,15.0867446 27.8770911,15.0867446 L23.1154658,15.0867446 C23.5459606,13.6124122 23.728435,12.332371 23.8422357,11.4608669 C24.0149698,10.1373084 23.4050389,8.61602894 22.9208831,8.06094947 L22.9208831,8.06094947 Z" fill="#FFFFFF"></path>
                    </g>
                </g>
            </g>
        </g>
    </g>
</svg>